<svg height="16" viewBox="0 0 16 16" width="16" xmlns="http://www.w3.org/2000/svg">
<path d="m183.859949 16.9913201-2.425634-2.4256347 1.13137-1.1313708 2.421601 2.4216006 2.405112-2.4223249 1.131371 1.1313708-2.405112 2.4223249 2.447028 2.4470286-1.13137 1.1313708-2.442995-2.4429945-2.425635 2.4429945-1.13137-1.1313708zm1.140051-7.9913201c4.416 0 8 3.584 8 8s-3.584 8-8 8-8-3.584-8-8 3.584-8 8-8zm-6.4 8c0 3.528 2.872 6.4 6.4 6.4s6.4-2.872 6.4-6.4-2.872-6.4-6.4-6.4-6.4 2.872-6.4 6.4z" fill="currentColor" fill-rule="evenodd" transform="translate(-177 -9)"/>
</svg>