<svg xmlns="http://www.w3.org/2000/svg" viewBox="0 0 20 20">
  <path d="M0,10c0,5.52,4.466,10,9.989,10c5.53,0,10.01-4.478,10.01-10c0-5.52-4.478-10-10.01-10C4.469,0,0,4.478,0,10 M10.04,2
		c4.44,0,8.05,3.589,8.05,8s-3.612,8-8.05,8c-4.428,0-8.03-3.589-8.03-8S5.613,2,10.04,2"/>
  <path d="M14,11c0.552,0,1-0.448,1-1s-0.448-1-1-1s-1,0.448-1,1S13.448,11,14,11"/>
  <path d="M10,11c0.552,0,1-0.448,1-1s-0.448-1-1-1s-1,0.448-1,1S9.448,11,10,11"/>
  <path d="M6,11c0.552,0,1-0.448,1-1S6.552,9,6,9s-1,0.448-1,1S5.448,11,6,11"/>
</svg>
