<?xml version="1.0" encoding="utf-8"?>
<!-- Generator: Adobe Illustrator 22.1.0, SVG Export Plug-In . SVG Version: 6.00 Build 0)  -->
<svg version="1.1" id="Calque_1" xmlns="http://www.w3.org/2000/svg" xmlns:xlink="http://www.w3.org/1999/xlink" x="0px" y="0px"
	 viewBox="0 0 500 500" style="enable-background:new 0 0 500 500;" xml:space="preserve">
<style type="text/css">
	.st0{fill:#BCC3CA;}
</style>
<title>icon-not-group-member</title>
<desc>Created with Sketch.</desc>
<g id="icon-not-group-member">
	<g id="Icon_x2F_Source-Security_x2F_Shared-Copy-3" transform="translate(18.000000, 150.000000)">
		<path id="Combined-Shape" class="st0" d="M199.6,192v-8.3H316V167c0-12.4-42.7-33.3-83.2-33.3c-16.4,0-33.2,3.4-47.4,8.4
			c-5.4-4.2-11.9-7.9-19.1-11.1c21.5-9.4,48.8-13.9,66.5-13.9c33.3,0,99.8,15.9,99.8,49.9v33.3H183l0,0h-16.6H183L199.6,192z"/>
		<path id="Shape" class="st0" d="M232.5,83.9c-18.4,0-33.2-15-33.2-33.6s14.9-33.6,33.2-33.6c18.4,0,33.2,15,33.2,33.6
			S250.9,83.9,232.5,83.9 M232.5,0c-27.5,0-49.8,22.5-49.8,50.4s22.3,50.4,49.8,50.4c27.5,0,49.8-22.5,49.8-50.4
			C282.3,22.5,260,0,232.5,0"/>
		<path id="Combined-Shape-Copy" class="st0" d="M331.9,192v-8.3h116.4V167c0-12.4-42.7-33.3-83.2-33.3c-16.4,0-33.2,3.4-47.4,8.4
			c-5.4-4.2-11.9-7.9-19.1-11.1c21.5-9.4,48.8-13.9,66.5-13.9c33.3,0,99.8,15.9,99.8,49.9v33.3H315.3l0,0h-16.6h16.6L331.9,192z"/>
		<path id="Shape-Copy" class="st0" d="M364.9,83.9c-18.4,0-33.2-15-33.2-33.6s14.9-33.6,33.2-33.6c18.4,0,33.2,15,33.2,33.6
			S383.2,83.9,364.9,83.9 M364.9,0c-27.5,0-49.8,22.5-49.8,50.4s22.3,50.4,49.8,50.4c27.5,0,49.8-22.5,49.8-50.4
			C414.6,22.5,392.3,0,364.9,0"/>
		<path id="Shape_1_" class="st0" d="M183.6,183.7H16.7V167c0-12.4,42.9-33.3,83.5-33.3c40.6,0,83.4,20.8,83.5,33.3V183.7
			 M100.1,117.1C66.8,117.1,0,133,0,167v33.3h200.3V167C200.3,133,133.5,117.1,100.1,117.1"/>
		<path id="Shape_2_" class="st0" d="M100.2,83.9c-18.4,0-33.2-15-33.2-33.6s14.9-33.6,33.2-33.6c18.4,0,33.2,15,33.2,33.6
			S118.5,83.9,100.2,83.9 M100.1,0C72.6,0,50.4,22.5,50.4,50.4s22.3,50.4,49.8,50.4c27.5,0,49.8-22.5,49.8-50.4
			C149.9,22.5,127.6,0,100.1,0"/>
	</g>
</g>
</svg>
